<?xml version="1.0" encoding="UTF-8" standalone="no"?>
<!-- Created with Inkscape (http://www.inkscape.org/) -->

<svg
   width="800"
   height="600"
   viewBox="0 0 211.66666 158.75"
   version="1.1"
   id="svg1"
   xml:space="preserve"
   inkscape:version="1.3.2 (091e20e, 2023-11-25, custom)"
   sodipodi:docname="noavatar.svg"
   xmlns:inkscape="http://www.inkscape.org/namespaces/inkscape"
   xmlns:sodipodi="http://sodipodi.sourceforge.net/DTD/sodipodi-0.dtd"
   xmlns="http://www.w3.org/2000/svg"
   xmlns:svg="http://www.w3.org/2000/svg"><sodipodi:namedview
     id="namedview1"
     pagecolor="#ffffff"
     bordercolor="#000000"
     borderopacity="0.25"
     inkscape:showpageshadow="2"
     inkscape:pageopacity="0.0"
     inkscape:pagecheckerboard="0"
     inkscape:deskcolor="#d1d1d1"
     inkscape:document-units="px"
     inkscape:zoom="1.0520974"
     inkscape:cx="186.76978"
     inkscape:cy="415.83602"
     inkscape:window-width="2560"
     inkscape:window-height="1377"
     inkscape:window-x="-8"
     inkscape:window-y="-8"
     inkscape:window-maximized="1"
     inkscape:current-layer="layer1" /><defs
     id="defs1"><rect
       x="128.31512"
       y="164.43346"
       width="407.50513"
       height="214.91612"
       id="rect3" /></defs><g
     inkscape:label="Layer 1"
     inkscape:groupmode="layer"
     id="layer1"><rect
       style="fill:#dedede;fill-opacity:1;stroke-width:0.358024"
       id="rect2"
       width="211.66666"
       height="158.75"
       x="0"
       y="0" /><path
       style="fill:#d3d3d3;fill-opacity:1;stroke-width:0.312416"
       d="m 57.576336,158.75 c 1.622631,-4.25314 4.563183,-14.24677 5.638632,-20.84398 0.642772,-3.94296 1.560444,-8.91003 5.19129,-11.87322 -1.324912,-0.11135 -3.958916,2.15472 -4.070276,1.59794 -0.111348,-0.55677 1.499126,-3.25397 2.863702,-3.90937 1.364575,-0.6554 3.248744,-1.0236 5.305733,-0.81288 -0.705945,-0.53221 -1.26376,-1.30669 -1.503519,-1.95678 3.421635,1.01655 7.902388,2.61554 10.199513,2.80469 3.775587,0.31087 5.318568,-0.19196 6.524906,-0.63739 0.167034,-1.00219 0.257317,-1.56134 0.111348,-2.46836 -1.167124,-0.47509 -2.799254,-1.17555 -3.693263,-1.44761 -0.02066,-0.62462 0.09364,-1.62893 -0.03708,-2.24566 -0.779991,-0.32087 -2.861269,-1.57572 -3.637588,-2.0415 0.908674,-1.77946 2.382767,-2.77636 3.451992,-3.50768 0.02987,-0.88909 0.03897,-1.45347 0.129922,-2.07863 0.598021,-0.0688 1.348812,-0.31278 2.022947,-0.48253 -0.05278,-1.1973 -4.15978,-6.63831 -7.846466,-8.60662 -1.88,-1.003713 -5.006935,-2.321222 -8.745859,-2.704907 -3.65719,-0.375289 -9.023024,-0.966391 -12.113614,-1.53403 -2.514788,-0.461888 -6.956362,-1.762123 -10.340625,-3.054576 5.198375,-1.371188 13.074514,-2.103334 17.329418,-2.97133 -5.899054,0.0024 -15.732393,-1.196018 -20.242654,-2.989337 6.067918,-1.852961 12.353692,-4.591027 13.255411,-5.382154 C 52.523905,76.403538 52.180285,70.979314 52.214492,68.764903 52.294662,63.574887 56.365758,52.3458 59.29804,45.256419 62.34311,37.894311 72.065503,15.391154 77.26232,6.6772811 c 6.193471,8.9719339 9.31273,20.8109449 10.131181,22.2571129 3.832005,-2.047235 7.901325,-4.407887 10.955156,-4.894607 3.122753,-0.497689 5.964393,-0.33813 10.252103,-0.669671 1.25983,-3.149593 4.37822,-12.731463 7.09403,-15.5608153 3.01278,4.5942983 4.39475,8.1581723 5.09339,9.7892033 0.76709,1.790828 1.70979,5.32361 1.87174,9.065946 7.22578,2.793941 16.31193,10.564884 20.71943,14.973296 4.08258,4.08343 8.82611,10.404922 11.83534,14.960549 4.66476,7.061927 7.70302,11.145027 14.5406,16.640335 -4.20405,-1.394745 -9.43223,-2.935045 -13.19308,-6.001181 2.76818,3.100686 9.61945,7.148256 12.69973,8.443861 -4.03716,0.476176 -8.58596,0.755101 -11.46255,-0.761914 -2.87658,-1.517027 -4.48185,-2.92071 -5.88597,-4.602669 1.66595,4.212183 8.73286,10.787568 10.7814,21.626323 1.02484,5.422347 0.44633,12.89274 -0.49855,19.82184 -0.94486,6.9291 -0.96288,11.72334 -0.22797,15.61966 -3.19965,-4.04698 -4.87922,-6.31192 -5.96622,-7.79445 1.53999,4.06638 3.71707,8.01447 5.86124,11.43713 -5.49247,-2.92959 -8.14669,-5.72912 -11.41913,-11.67258 2.72908,6.86152 3.11832,13.55996 2.38811,18.87245 -0.61721,4.49045 -4.5992,20.5229 -4.5992,20.5229 -19.51031,0 -87.730753,0 -90.656764,0 z"
       id="path1"
       sodipodi:nodetypes="cscczccsccccccccsssccccssccsccscssccczcssccccscc" /><text
       xml:space="preserve"
       transform="matrix(0.26458333,0,0,0.26458333,17.973834,18.916953)"
       id="text2"
       style="font-style:normal;font-variant:normal;font-weight:normal;font-stretch:normal;font-size:64px;font-family:Impact;-inkscape-font-specification:Impact;text-align:center;white-space:pre;shape-inside:url(#rect3);fill:#d3d3d3;fill-opacity:1;stroke-width:1.00157;stroke-dasharray:none"
       x="131.21875"
       y="0"><tspan
         x="198.30176"
         y="228.50286"
         id="tspan6"><tspan
           style="fill:#252525"
           id="tspan3">NO AVATAR </tspan></tspan><tspan
         x="252.72363"
         y="308.50286"
         id="tspan8"><tspan
           style="fill:#252525"
           id="tspan7">IMAGE</tspan></tspan></text></g></svg>
